HIERARCHY
ROOT hip
{
	OFFSET 0.000000 0.000000 0.000000 
	CHANNELS 6 Xposition Yposition Zposition Xrotation Zrotation Yrotation
	JOINT abdomen
	{
		OFFSET 0.000000 3.402643 0.000000 
		CHANNELS 3 Xrotation Zrotation Yrotation
		JOINT chest
		{
			OFFSET 0.000000 8.438565 -0.680529 
			CHANNELS 3 Xrotation Zrotation Yrotation
			JOINT neck
			{
				OFFSET 0.000000 10.207942 -0.272212 
				CHANNELS 3 Xrotation Zrotation Yrotation
				JOINT head
				{
					OFFSET 0.000000 3.130431 0.000000 
					CHANNELS 3 Xrotation Zrotation Yrotation
					End Site
					{
						OFFSET 0.000000 3.130435 0.000000 
					}
				}
			}
			JOINT lCollar
			{
				OFFSET 3.470700 6.669187 -0.816635 
				CHANNELS 3 Yrotation Zrotation Xrotation
				JOINT lShldr
				{
					OFFSET 3.198488 0.000000 0.000000 
					CHANNELS 3 Zrotation Yrotation Xrotation
					JOINT lForeArm
					{
						OFFSET 10.139888 0.000000 0.000000 
						CHANNELS 3 Yrotation Zrotation Xrotation
						JOINT lHand
						{
							OFFSET 8.370511 0.000000 0.000000 
							CHANNELS 3 Zrotation Yrotation Xrotation
							End Site
							{
								OFFSET 4.083176 0.000000 0.000000 
							}
						}
					}
				}
			}
			JOINT rCollar
			{
				OFFSET -3.470700 6.669187 -0.816635 
				CHANNELS 3 Yrotation Zrotation Xrotation
				JOINT rShldr
				{
					OFFSET -3.198488 0.000000 0.000000 
					CHANNELS 3 Zrotation Yrotation Xrotation
					JOINT rForeArm
					{
						OFFSET -10.139888 0.000000 0.000000 
						CHANNELS 3 Yrotation Zrotation Xrotation
						JOINT rHand
						{
							OFFSET -8.370511 0.000000 0.000000 
							CHANNELS 3 Zrotation Yrotation Xrotation
							End Site
							{
								OFFSET -4.083176 0.000000 0.000000 
							}
						}
					}
				}
			}
		}
	}
	JOINT lThigh
	{
		OFFSET 5.308129 -1.633274 1.361059 
		CHANNELS 3 Xrotation Zrotation Yrotation
		JOINT lShin
		{
			OFFSET -2.041588 -20.007561 0.000000 
			CHANNELS 3 Xrotation Zrotation Yrotation
			JOINT lFoot
			{
				OFFSET 0.000000 -19.190928 -1.224953 
				CHANNELS 3 Xrotation Yrotation Zrotation
				End Site
				{
					OFFSET 0.000000 -2.449906 4.627600 
				}
			}
		}
	}
	JOINT rThigh
	{
		OFFSET -5.308129 -1.633274 1.361059 
		CHANNELS 3 Xrotation Zrotation Yrotation
		JOINT rShin
		{
			OFFSET 2.041588 -20.007561 0.000000 
			CHANNELS 3 Xrotation Zrotation Yrotation
			JOINT rFoot
			{
				OFFSET 0.000000 -19.190928 -1.224953 
				CHANNELS 3 Xrotation Yrotation Zrotation
				End Site
				{
					OFFSET 0.000000 -2.449906 4.627600 
				}
			}
		}
	}
}
MOTION
Frames: 17
Frame Time: 0.033333
1.572218 48.586617 3.684372 -0.640623 -0.087804 -2.548840 0.000000 0.000000 0.000000 -3.583781 0.019530 0.595706 5.002705 0.204699 3.486376 8.124101 -0.390090 2.998111 0.300454 8.725993 -2.687719 -4.464085 2.379327 -12.195036 0.420976 -5.849107 17.629562 0.959733 -3.611270 -3.452864 0.289850 -8.089159 -2.731657 1.147252 -5.856377 -11.852006 -0.267589 8.674143 20.955946 -1.881104 8.585670 -3.525339 3.980690 9.456685 8.540253 9.938109 -2.890690 3.352230 -11.306823 0.771831 -7.700129 4.919027 -11.324383 -10.774748 6.422777 2.526000 -3.250067 -7.864934 -0.699170 9.863804 
1.590582 48.586483 3.664691 -0.615234 0.000000 -2.675781 0.000000 0.000000 0.000000 -3.574538 -0.029295 0.625000 4.920679 0.136450 3.593763 8.164787 -0.351059 3.066409 0.326477 8.656352 -2.687712 -4.474236 2.491483 -12.134592 0.429676 -5.841243 17.834536 1.132278 -3.708469 -3.465017 0.356725 -8.121650 -2.731625 1.047481 -5.746851 -11.589792 -0.262041 8.834395 20.194563 -2.019808 8.430479 -3.541902 3.999894 9.339476 8.469130 9.889997 -2.861501 3.484153 -11.289878 0.768706 -7.668691 4.790937 -11.449113 -10.814301 6.547548 2.515156 -3.057441 -7.911835 -0.719298 9.866604 
1.600145 48.573280 3.647165 -0.520944 0.068276 -2.822263 0.000000 0.000000 0.000000 -3.653836 -0.126944 0.673826 4.942216 0.165678 3.652385 7.970180 -0.331538 3.125004 0.333781 8.792980 -2.758259 -4.630220 2.632217 -12.084850 0.429139 -5.796030 18.068661 1.015058 -3.715544 -3.457430 0.425770 -7.939979 -2.789623 0.739340 -5.749244 -11.481050 -0.265343 8.791608 20.991911 -1.830119 8.696150 -3.530152 3.797848 9.255974 8.397882 10.103960 -2.880920 3.634819 -11.406941 0.771809 -7.691087 4.382884 -11.617896 -10.827874 7.100575 2.562749 -2.885031 -8.160840 -0.716517 9.853219 
1.607941 48.573650 3.634822 -0.597186 0.029259 -2.900390 0.000000 0.000000 0.000000 -3.604731 -0.097649 0.712890 4.997660 0.116952 3.632825 7.933746 -0.292560 3.027354 0.217060 8.759258 -2.708515 -4.573328 2.796757 -11.906735 0.427389 -5.872254 17.816078 1.196511 -3.636111 -3.468267 0.551529 -7.906146 -2.739854 0.636670 -5.817461 -11.218225 -0.255122 8.859667 20.827780 -2.094583 8.700020 -3.551222 3.863809 9.262487 8.449231 10.143822 -2.890794 3.690106 -11.441098 0.777574 -7.656528 4.472373 -11.601217 -10.829071 7.023995 2.582803 -2.693769 -8.115741 -0.713137 9.810613 
1.607689 48.563854 3.623764 -0.614236 -0.019506 -2.929691 0.000000 0.000000 0.000000 -3.614120 -0.068354 0.703124 5.080085 0.185176 3.623091 7.761755 -0.575326 3.105607 0.189663 8.799644 -2.708519 -4.654583 2.873335 -12.141562 0.438151 -5.724129 18.184322 1.031644 -3.665632 -3.458003 0.608704 -7.909024 -2.749489 0.656660 -5.842957 -11.171386 -0.263710 8.838573 21.270597 -2.710748 8.809490 -3.620717 3.755789 9.378083 8.499052 10.466424 -2.900797 3.668665 -11.606490 0.781095 -7.690499 4.370411 -11.506037 -10.696918 7.213907 2.497148 -2.754588 -8.192000 -0.722623 9.861980 
1.607685 48.573914 3.617380 -0.655288 0.019506 -2.910156 0.000000 0.000000 0.000000 -3.584988 -0.087885 0.654296 5.128197 0.019492 3.652347 7.707370 -0.321804 3.066413 0.156478 8.576251 -2.687707 -4.496458 2.876079 -12.151190 0.445594 -5.730756 18.135765 0.888657 -3.732939 -3.449308 0.517483 -8.060655 -2.721879 0.635054 -5.659327 -11.316720 -0.244938 8.862858 20.620800 -2.080980 8.798661 -3.552394 3.873124 9.309388 8.483881 10.240455 -2.900405 3.614890 -11.460160 0.773691 -7.658743 4.481074 -11.561034 -10.765772 7.055001 2.534766 -2.772142 -8.085072 -0.728177 9.835090 
1.604911 48.577938 3.607871 -0.705537 0.048768 -2.832030 0.000000 0.000000 0.000000 -3.566431 -0.175770 0.644528 5.152539 0.097468 3.554699 7.740540 -0.429064 3.085997 0.047957 8.649540 -2.657277 -4.492173 2.870286 -11.954939 0.438696 -5.859611 17.864676 1.102973 -3.710239 -3.463121 0.558347 -7.876503 -2.699826 0.448502 -5.737228 -11.374669 -0.237053 8.841294 20.353075 -2.004889 8.666137 -3.546560 3.930768 9.250145 8.449100 10.103961 -2.880918 3.634819 -11.378371 0.766220 -7.671726 4.548304 -11.598432 -10.831911 7.027821 2.555156 -2.812017 -8.089459 -0.707578 9.833931 
1.597241 48.581825 3.602596 -0.723124 0.009754 -2.744141 0.000000 0.000000 0.000000 -3.566281 -0.175772 0.595700 5.161107 0.077974 3.564463 7.728369 -0.292544 3.085947 0.029932 8.650431 -2.668397 -4.526070 2.768222 -11.882271 0.436580 -5.907375 17.699541 1.124593 -3.581764 -3.462994 0.514678 -7.972229 -2.701186 0.542875 -5.748423 -11.403543 -0.233821 8.856775 20.027439 -1.895217 8.653279 -3.529899 3.940452 9.309259 8.445477 10.084907 -2.892724 3.479208 -11.360470 0.758102 -7.642782 4.628154 -11.503746 -10.784431 6.886137 2.504102 -3.007981 -7.977526 -0.702850 9.875989 
1.595610 48.566502 3.595932 -0.788744 -0.048775 -2.666023 0.000000 0.000000 0.000000 -3.517046 -0.136711 0.595701 5.113327 0.097478 3.466809 7.895759 -0.458348 3.017638 0.061838 8.687720 -2.609011 -4.577604 2.588829 -11.863523 0.421908 -5.932034 17.681070 1.070124 -3.653528 -3.460354 0.464975 -8.135386 -2.652858 0.668536 -5.794310 -11.571095 -0.241573 8.779403 20.191578 -1.760998 8.563624 -3.507200 3.795906 9.418489 8.464102 10.479110 -2.849769 3.329997 -11.553243 0.824099 -7.689744 4.576852 -11.449993 -10.747345 7.170214 2.495077 -2.981492 -8.190303 -0.723191 9.872424 
1.594349 48.577168 3.593275 -0.817203 -0.068289 -2.607432 0.000000 0.000000 0.000000 -3.468341 -0.156242 0.566404 5.003625 0.224210 3.418019 8.034774 -0.760593 3.115478 0.057361 8.687752 -2.578575 -4.547305 2.534088 -11.877639 0.418760 -5.958534 17.475105 1.171943 -3.715854 -3.468336 0.368167 -7.993703 -2.622540 0.606460 -5.779140 -11.769485 -0.242020 8.748530 20.199821 -1.597571 8.592694 -3.502137 3.904802 9.392430 8.472808 10.309407 -2.842040 3.361237 -11.438172 0.779716 -7.687810 4.761474 -11.409039 -10.779082 6.860378 2.496158 -3.088103 -7.975904 -0.703502 9.886323 
1.594851 48.567757 3.589908 -0.867357 -0.039022 -2.617194 0.000000 0.000000 0.000000 -3.468445 -0.175774 0.537107 5.109268 0.194967 3.408249 7.782336 -0.731333 3.125244 0.005916 8.631389 -2.578567 -4.509768 2.628888 -11.920755 0.429335 -5.900662 17.748081 1.188163 -3.832422 -3.461197 0.392469 -8.102341 -2.622518 0.783479 -5.782036 -11.747992 -0.246227 8.754603 20.348906 -1.713182 8.566318 -3.509579 3.863142 9.397049 8.453225 10.494452 -2.822387 3.263124 -11.548373 0.775641 -7.670381 4.695203 -11.451379 -10.781165 7.145703 2.477499 -2.993754 -8.166947 -0.720476 9.883720 
1.593852 48.577316 3.591751 -0.879805 0.019511 -2.636719 0.000000 0.000000 0.000000 -3.449280 -0.214834 0.537106 5.085152 0.116977 3.437513 7.788299 -0.624076 3.115368 0.038449 8.551618 -2.557797 -4.515122 2.619668 -12.037906 0.423662 -5.860714 17.717962 1.177212 -3.813519 -3.460220 0.378467 -8.071997 -2.593524 0.835552 -5.820754 -11.694314 -0.261333 8.699553 21.193125 -2.381851 8.751367 -3.576931 4.042065 9.354786 8.490702 10.183033 -2.881124 3.268996 -11.401959 0.773853 -7.646746 4.771633 -11.507017 -10.820084 6.975807 2.485556 -2.983944 -8.073519 -0.722445 9.891071 
1.599769 48.580311 3.586995 -0.840759 0.019510 -2.685547 0.000000 0.000000 0.000000 -3.478729 -0.205067 0.605465 5.055397 0.107221 3.505872 7.840505 -0.565580 3.095841 0.111145 8.548546 -2.588227 -4.606211 2.556682 -11.951011 0.432160 -5.893238 17.895767 1.355436 -3.509105 -3.475829 0.467983 -7.949352 -2.622496 0.828906 -5.851846 -11.663994 -0.233086 8.699471 20.394209 -2.172284 8.519196 -3.557973 4.041302 9.315126 8.457016 10.094456 -2.873080 3.294710 -11.352513 0.762195 -7.629808 4.734241 -11.519791 -10.810015 6.959392 2.477091 -3.024478 -8.048644 -0.705880 9.887207 
1.610321 48.564484 3.583858 -0.771030 -0.009755 -2.666017 0.000000 0.000000 0.000000 -3.556211 -0.146476 0.595701 5.057096 0.136469 3.466810 7.794298 -0.702112 3.076300 0.243625 8.621036 -2.666939 -5.067153 2.311845 -12.184785 0.399375 -5.764855 18.077339 1.525856 -3.400722 -3.494061 0.385997 -8.005320 -2.701249 1.424855 -5.565641 -12.733928 -0.194166 8.379477 20.151218 -2.008522 8.069022 -3.540630 3.727531 9.380372 8.429532 10.533700 -2.841824 3.376187 -11.538183 0.774073 -7.670950 4.518773 -11.529580 -10.753997 7.251490 2.496272 -2.937651 -8.205905 -0.724922 9.904143 
1.600384 48.570034 3.575746 -0.802638 0.039018 -2.724609 0.000000 0.000000 0.000000 -3.527587 -0.195300 0.644528 5.200627 0.087730 3.466808 7.588491 -0.546122 3.007862 0.527894 8.637274 -2.668364 -6.040214 1.640388 -12.923647 0.335083 -5.403718 17.988321 2.211027 -2.742358 -3.522328 0.517861 -7.991473 -2.670815 2.722495 -5.354094 -16.735689 -0.153265 7.010932 21.760647 -1.945466 7.828107 -3.535826 3.873939 9.291983 8.412818 10.336104 -2.831398 3.457680 -11.450711 0.816719 -7.713226 4.519502 -11.569155 -10.778049 7.280923 2.496391 -2.887094 -8.192359 -0.738750 9.886769 
1.595200 48.590168 3.560512 -0.751953 0.000000 -2.714844 0.000000 0.000000 0.000000 -3.605217 -0.136708 0.712889 5.650058 -0.068228 3.554685 6.884765 0.000000 2.812500 0.837210 8.348763 -2.734376 -8.016128 0.270818 -16.663031 0.217083 -3.697852 17.408726 1.819287 -1.924461 -3.508181 0.667562 -7.989504 -2.720427 5.229082 -4.899843 -25.892960 -0.071710 4.535553 24.130142 -3.177305 7.410616 -3.647799 3.991773 9.293018 8.414542 9.975824 -2.812004 3.482032 -11.257730 0.767832 -7.690253 4.673870 -11.469161 -10.772806 6.769043 2.533490 -2.974804 -7.906172 -0.706497 9.818751 
1.565988 48.622383 3.501717 -0.589951 0.087799 -2.617184 0.000000 0.000000 0.000000 -3.605128 -0.166008 0.556638 6.389447 -0.428865 3.544969 3.572776 0.585275 2.724766 0.922630 8.207583 -2.763306 -11.760426 -1.339798 -23.306923 0.068993 -0.824491 16.359224 3.112979 -1.941915 -3.565415 0.583914 -7.056944 -2.725144 7.010301 -3.351003 -37.237770 0.078982 3.533328 20.121937 -7.922076 7.136133 -4.087582 4.091116 9.238577 8.380416 9.160522 -2.858188 3.403776 -10.746801 0.711681 -7.653551 4.656320 -11.413692 -10.755788 6.315419 2.477258 -3.238931 -7.599287 -0.670704 9.794528 
